<?xml version="1.0" encoding="utf-8"?>
<!-- Generator: Adobe Illustrator 23.0.1, SVG Export Plug-In . SVG Version: 6.00 Build 0)  -->
<svg version="1.1" id="Layer_1" xmlns="http://www.w3.org/2000/svg" xmlns:xlink="http://www.w3.org/1999/xlink" x="0px" y="0px"
	 viewBox="0 0 850.7 425.6" style="enable-background:new 0 0 850.7 425.6;" xml:space="preserve" preserveAspectRatio="none">
<style type="text/css">
	.st0{fill:none;stroke:#000000;stroke-miterlimit:10;}
	.st1{fill:#387661;}
</style>
<title>Asset 1</title>
<g>
	<g id="Layer_1-2">
		<polygon class="st0" points="461.2,106.8 355,0.5 284.2,0.5 390.5,106.8 355.2,142.2 213.5,0.5 142.8,0.5 319.7,177.5 72.3,424.9 
			72.5,425.1 143.3,425.1 143.1,424.9 		"/>
		<polygon class="st0" points="496.6,142.1 213.5,425.1 284.3,425.1 531.9,177.5 		"/>
		<polygon class="st0" points="213.7,142.1 1.2,354.6 1.2,425.1 1.4,425.1 249,177.5 		"/>
		<polygon class="st0" points="850.2,425.1 850.2,354.4 779.5,425.1 		"/>
		<polygon class="st0" points="72.1,0.5 1.2,0.5 107.7,107 72.3,142.3 1.2,71.2 1.2,141.9 37,177.7 1.2,213.4 1.2,283.9 
			178.3,106.8 		"/>
		<polygon class="st0" points="744.1,106.8 637.8,0.5 567.1,0.5 673.4,106.8 638,142.2 496.3,0.5 425.7,0.5 602.6,177.5 
			355.2,424.9 355.4,425.1 426.2,425.1 426,424.9 		"/>
		<polygon class="st0" points="638.3,425.1 708.8,425.1 850.2,283.7 850.2,212.7 638.1,424.9 		"/>
		<polygon class="st0" points="708.6,0.5 850.2,142.2 850.2,71.5 779.2,0.5 		"/>
		<polygon class="st0" points="849.9,0.5 850.2,0.8 850.2,0.5 		"/>
		<polygon class="st0" points="779.4,142.1 496.4,425.1 567.2,425.1 814.8,177.5 		"/>
		<polygon class="st1" points="673.4,106.8 567.1,0.5 496.3,0.5 638,142.2 		"/>
		<polygon class="st1" points="602.6,177.5 425.7,0.5 355,0.5 461.2,106.8 143.1,424.9 143.3,425.1 213.5,425.1 496.6,142.1 
			531.9,177.5 284.3,425.1 355.4,425.1 355.2,424.9 		"/>
		<polygon class="st1" points="779.2,0.5 850.2,71.5 850.2,0.8 849.9,0.5 		"/>
		<polygon class="st1" points="637.8,0.5 744.1,106.8 426,424.9 426.2,425.1 496.4,425.1 779.4,142.1 814.8,177.5 567.2,425.1 
			638.3,425.1 638.1,424.9 850.2,212.7 850.2,142.2 708.6,0.5 		"/>
		<polygon class="st1" points="390.5,106.8 284.2,0.5 213.5,0.5 355.2,142.2 		"/>
		<polygon class="st1" points="319.7,177.5 142.8,0.5 72.1,0.5 178.3,106.8 1.2,283.9 1.2,354.6 213.7,142.1 249,177.5 1.4,425.1 
			72.5,425.1 72.3,424.9 		"/>
		<polygon class="st1" points="107.7,107 1.2,0.5 1.2,71.2 72.3,142.3 		"/>
		<polygon class="st1" points="1.2,141.9 1.2,213.4 37,177.7 		"/>
		<polygon class="st1" points="779.5,425.1 850.2,354.4 850.2,283.7 708.8,425.1 		"/>
	</g>
</g>
</svg>
