<?xml version="1.0" encoding="utf-8"?>
<!-- Generator: Adobe Illustrator 23.0.1, SVG Export Plug-In . SVG Version: 6.00 Build 0)  -->
<svg version="1.1" id="Layer_1" xmlns="http://www.w3.org/2000/svg" xmlns:xlink="http://www.w3.org/1999/xlink" x="0px" y="0px"
	 viewBox="0 0 849 600" style="enable-background:new 0 0 849 600;" xml:space="preserve" preserveAspectRatio="none">
<style type="text/css">
	.st0{fill:none;}
	.st1{fill:#387661;}
</style>
<title>Asset 1</title>
<g>
	<g id="Layer_1-2">
		<polygon class="st0" points="0.4,495.1 105.3,600 176.1,600 35.8,459.7 		"/>
		<polygon class="st0" points="283.3,495.1 388.2,600 458.9,600 318.6,459.7 		"/>
		<polygon class="st0" points="566.2,495.1 671.1,600 741.8,600 601.5,459.7 		"/>
		<polygon class="st1" points="636.8,141.7 672.2,106.3 565.9,0 495.1,0 		"/>
		<polygon class="st1" points="601.4,177 424.5,0 353.7,0 460,106.3 141.9,424.4 177.2,459.7 495.4,141.6 530.7,177 212.6,495.1 
			317.5,600 388.2,600 283.3,495.1 318.6,459.7 458.9,600 529.6,600 354,424.4 		"/>
		<polygon class="st1" points="849,71 849,0.3 848.7,0 778,0 		"/>
		<polygon class="st1" points="849,212.2 849,141.7 707.3,0 636.6,0 742.9,106.3 424.8,424.4 460.1,459.7 778.2,141.6 813.6,177 
			495.5,495.1 600.4,600 671.1,600 566.2,495.1 601.5,459.7 741.8,600 812.5,600 636.9,424.4 		"/>
		<polygon class="st1" points="354,141.7 389.3,106.3 283,0 212.3,0 		"/>
		<polygon class="st1" points="318.5,177 141.6,0 70.9,0 177.1,106.3 0,283.4 0,354.1 212.5,141.6 247.8,177 0,424.8 0,565.4 
			34.6,600 105.3,600 0.4,495.1 35.8,459.7 176.1,600 246.7,600 71.1,424.4 		"/>
		<polygon class="st1" points="71.1,141.8 106.5,106.5 0,0 0,70.7 		"/>
		<polygon class="st1" points="0,141.4 0,212.9 35.8,177.2 		"/>
		<polygon class="st1" points="849,566.1 849,495.4 848.9,495.4 849,495.3 849,424.6 778.2,495.4 		"/>
		<polygon class="st1" points="742.9,460 849,353.9 849,283.2 707.5,424.7 		"/>
	</g>
</g>
</svg>
