<?xml version="1.0" encoding="utf-8"?>
<!-- Generator: Adobe Illustrator 23.0.1, SVG Export Plug-In . SVG Version: 6.00 Build 0)  -->
<svg version="1.1" id="Layer_1" xmlns="http://www.w3.org/2000/svg" xmlns:xlink="http://www.w3.org/1999/xlink" x="0px" y="0px"
	 viewBox="0 0 86 212.9" style="enable-background:new 0 0 86 212.9;" xml:space="preserve" preserveAspectRatio="none">
<style type="text/css">
	.st0{fill:#FF4D35;}
	.st1{fill:none;}
	.st2{fill:#861F41;}
	.st3{fill:#387661;}
</style>
<title>Asset 3</title>
<path class="st0" d="M47.9,74.8C47.9,74.8,47.9,74.8,47.9,74.8c-2.9,1.9-6.5,1.9-9.3,0.1c0,0-0.1,0-0.1-0.1
	c-0.1-0.1-0.2-0.1-0.3-0.2"/>
<path class="st1" d="M48.8,53.4L44.4,49c-0.8-0.8-2-0.8-2.8,0l0,0l0,0l-4.3,4.3c-0.4,0.4-0.6,0.9-0.6,1.4v0c0,0.5,0.2,1,0.6,1.4
	l4.3,4.3c0.8,0.8,2,0.8,2.8,0l0,0l0,0l4.3-4.3c0.4-0.4,0.6-0.9,0.6-1.4v0C49.3,54.3,49.1,53.8,48.8,53.4z"/>
<path class="st1" d="M41.6,60.5c0.8,0.8,2,0.8,2.8,0l4.3-4.3c0.4-0.4,0.6-0.9,0.6-1.4v0c0-0.5-0.2-1-0.6-1.4L44.4,49l0,0
	c-0.8-0.8-2-0.8-2.8,0c0,0,0,0,0,0l-4.3,4.3c-0.4,0.4-0.6,0.9-0.6,1.4v0c0,0.5,0.2,1,0.6,1.4L41.6,60.5L41.6,60.5z"/>
<path class="st0" d="M86,135.8V54.4c0,0-2.5,0.5-3.4,0.8c-0.5,0.1-0.9,0.2-1.4,0.4c-0.1,0-0.1,0.1-0.2,0.1c-0.5,0.2-1,0.4-1.5,0.6
	c-0.2,0.1-0.4,0.2-0.5,0.3c-0.5,0.3-1,0.5-1.4,0.8c-0.1,0-0.1,0.1-0.2,0.1c-0.1,0-0.1,0.1-0.2,0.1c-0.5,0.3-0.9,0.7-1.3,1
	c-0.2,0.1-0.3,0.3-0.5,0.4c-0.4,0.4-0.8,0.8-1.3,1.2c-0.1,0.1-0.1,0.1-0.2,0.1c-0.1,0.1-0.2,0.2-0.3,0.3c-0.3,0.3-0.6,0.6-0.8,1
	c-0.2,0.2-0.3,0.4-0.5,0.6c-0.2,0.3-0.4,0.6-0.6,0.8c-0.2,0.2-0.3,0.5-0.5,0.7c-0.2,0.3-0.4,0.6-0.6,0.9c-0.2,0.2-0.3,0.5-0.5,0.7
	c-0.2,0.4-0.5,0.8-0.7,1.2c-0.1,0.2-0.2,0.3-0.3,0.4c-0.3,0.5-0.6,1.1-0.9,1.6c0,0,0,0.1-0.1,0.1c-0.5,1-1,2.1-1.5,3.2
	c0,0,0,0.1-0.1,0.1c0,0.1-0.1,0.1-0.1,0.2c-0.4,0.9-0.7,1.7-1.1,2.6c-0.1,0.2-0.2,0.4-0.3,0.6c-0.4,0.9-0.7,1.9-1,2.8
	c-0.1,0.3-0.2,0.5-0.3,0.8c-0.3,1-0.7,1.9-1,2.9c-0.1,0.3-0.2,0.5-0.2,0.8c-0.3,1-0.6,1.9-0.9,2.9c0,0.1-0.1,0.2-0.1,0.3
	c0,0.1-0.1,0.2-0.1,0.3c-0.4,1.3-0.7,2.5-1.1,3.8c0,0.1-0.1,0.2-0.1,0.3c0,0.1,0,0.1-0.1,0.2c-0.6,2.1-1.1,4.2-1.7,6.4
	c-0.1,0.3-0.1,0.6-0.2,0.9c-0.5,1.9-1,3.7-1.4,5.6c-0.1,0.3-0.1,0.5-0.2,0.8c-1.9,7.4-5.1,19.9-8.8,28.5V74.4c-2.9,2.3-7.1,2.3-10,0
	V133c-4.1-8.6-7.3-21.1-9.2-28.5c-1.2-4.7-2.4-9.4-3.6-13.9c-0.4-1.5-0.8-3-1.3-4.4c-2.2-7.2-4.5-13.8-7.5-19.1
	c-1.3-2.5-2.9-4.7-4.8-6.8c-1-1.1-2.2-2.1-3.4-2.9C7,56.6,5.8,56,4.4,55.5c-0.5-0.2-0.9-0.3-1.4-0.4c-0.9-0.2-3-0.8-3-0.8l0,82.1
	l0,0v-0.6c2.1,0,4.2,0.8,5.7,2.3l0.3,0.3V79.9c3,8.6,6.2,21.1,8,28.5c1.2,4.7,2.4,9.4,3.6,13.9c0.4,1.5,0.8,3,1.3,4.4
	c1.4,4.8,3,9.4,5,14c0.5,1.2,1.1,2.3,1.6,3.4c0.3,0.6,0.6,1.1,0.9,1.6c1.3,2.5,3,4.7,4.8,6.8c1,1.1,2.2,2.1,3.4,2.9
	c1.2,0.8,2.5,1.4,3.8,1.9c0.5,0.2,0.9,0.3,1.4,0.4c1,0.1,2,0.2,2.9,0.2h0c1.8,0,3.6-0.3,5.3-1c0.4-0.1,0.7-0.3,1-0.5
	c1.2-0.6,2.4-1.4,3.4-2.3c0.1,0,0.1-0.1,0.2-0.1c1-0.9,2-1.9,2.8-3c0,0,0.1-0.1,0.1-0.1c0.4-0.5,0.7-0.9,1.1-1.4
	c0.1-0.1,0.1-0.2,0.2-0.2c0.4-0.5,0.7-1,1-1.6c0,0,0.1-0.1,0.1-0.1c0.8-1.2,1.5-2.5,2.2-3.9c0,0,0-0.1,0.1-0.1
	c0.3-0.6,0.6-1.3,0.9-1.9c0-0.1,0.1-0.2,0.1-0.3c0.3-0.7,0.6-1.4,0.9-2.1l0-0.1c0.6-1.5,1.2-3.1,1.8-4.8l0,0
	c0.3-0.8,0.6-1.6,0.8-2.4l0.1-0.2c2.4-7.2,4.4-15.3,6.5-23.5c1.9-7.4,5.1-19.9,8.4-28.5v58.7l0.3-0.3
	C81.8,136.7,83.9,135.8,86,135.8z"/>
<path class="st2" d="M48,74.4c0.2-0.2,0.4-0.4,0.7-0.6l0,0L62,60.5c3.1-3.1,3.1-8.2,0-11.3L48.7,35.7c-3.1-3.1-8.2-3.1-11.3,0l0,0
	L24,49.1c-3.1,3.1-3.1,8.2,0,11.3l13.4,13.4C40.2,76.7,44.8,77,48,74.4z M37.2,56.2c-0.4-0.4-0.6-0.9-0.6-1.4v0c0-0.5,0.2-1,0.6-1.4
	l4.3-4.3c0.8-0.8,2-0.8,2.8,0c0,0,0,0,0,0l0,0l4.3,4.3c0.4,0.4,0.6,0.9,0.6,1.4v0c0,0.5-0.2,1-0.6,1.4l-4.3,4.3
	c-0.8,0.8-2,0.8-2.8,0l0,0L37.2,56.2z"/>
<path class="st2" d="M0,135.8v15h0c0.5,0,1,0.2,1.4,0.6l4.3,4.3l0,0l0,0c0.8,0.8,0.8,2,0,2.8c0,0,0,0,0,0L1.4,163
	c-0.4,0.4-0.9,0.6-1.4,0.6h0v15c2.1,0,4.2-0.8,5.7-2.3l13.4-13.4l0,0c3.1-3.1,3.1-8.2,0-11.3c0,0,0,0,0,0l-13-13l-0.3-0.3
	C4.2,136.7,2.1,135.8,0,135.8z"/>
<path class="st2" d="M80.3,155.8l4.3-4.3c0.4-0.4,0.9-0.6,1.4-0.6h0v-15h0c-2.1,0-4.2,0.8-5.7,2.3l-0.3,0.3l-13,13
	c-3.1,3.1-3.1,8.2,0,11.3c0,0,0,0,0,0l0,0l13.4,13.4c1.5,1.5,3.5,2.3,5.7,2.3v-15h0c-0.5,0-1-0.2-1.4-0.6l-4.3-4.3
	C79.5,157.9,79.5,156.6,80.3,155.8L80.3,155.8z"/>
<polygon class="st3" points="75,197 52,165.1 52,165.6 52,212.9 75,212.9 "/>
<polygon class="st3" points="34,165.1 11,197 11,212.9 34,212.9 34,165.6 "/>
<polygon class="st3" points="9,47.4 9,47.8 32,15.9 32,0 9,0 "/>
<polygon class="st3" points="53,0 53,15.9 76,47.8 76,47.4 76,0 "/>
</svg>
