<?xml version="1.0" encoding="utf-8"?>
<!-- Generator: Adobe Illustrator 23.0.1, SVG Export Plug-In . SVG Version: 6.00 Build 0)  -->
<svg version="1.1" id="Layer_1" xmlns="http://www.w3.org/2000/svg" xmlns:xlink="http://www.w3.org/1999/xlink" x="0px" y="0px"
	 viewBox="0 0 849 601" style="enable-background:new 0 0 849 601;" xml:space="preserve" preserveAspectRatio="none">
<style type="text/css">
	.st0{fill:none;}
	.st1{fill:#387661;}
</style>
<title>Asset 1</title>
<g>
	<g id="Layer_1-2">
		<polygon class="st0" points="318.6,0.1 318.6,0.1 318.6,0.1 		"/>
		<polygon class="st0" points="601.5,0.1 601.5,0.1 601.5,0.1 		"/>
		<polygon class="st0" points="35.8,0.1 35.8,0.1 35.8,0.1 		"/>
		<polygon class="st1" points="283.3,35.4 318.6,0 247.9,0 212.6,35.4 460,282.8 141.9,601 212.6,601 495.4,318.2 530.7,353.5 
			283.3,601 354,601 601.4,353.5 		"/>
		<polygon class="st1" points="636.8,318.2 672.2,282.8 389.3,0 318.6,0 		"/>
		<polygon class="st1" points="601.5,0 530.8,0 495.4,35.4 742.9,282.8 424.7,601 495.4,601 778.2,318.2 813.6,353.5 566.1,601 
			636.8,601 849,388.8 849,318.2 566.1,35.4 		"/>
		<polygon class="st1" points="601.5,0 849,247.5 849,176.8 672.2,0 		"/>
		<polygon class="st1" points="0.4,35.4 35.8,0 0,0 0,105.6 177.2,282.8 0,460 0,530.7 212.5,318.2 247.9,353.5 0.4,601 71.1,601 
			318.6,353.5 		"/>
		<polygon class="st1" points="354,318.2 389.3,282.8 106.5,0 35.8,0 		"/>
		<polygon class="st1" points="106.5,283 0,176.5 0,247.2 71.1,318.3 		"/>
		<polygon class="st1" points="0,317.9 0,389.4 35.8,353.7 		"/>
		<polygon class="st1" points="778.2,35.4 849,106.1 849,35.4 848.9,35.4 849,35.3 849,0 813.6,0 		"/>
		<polygon class="st1" points="849,601 849,600.9 848.9,601 		"/>
		<polygon class="st1" points="778.2,601 849,530.2 849,459.5 707.5,601 		"/>
	</g>
</g>
</svg>
