<?xml version="1.0" encoding="utf-8"?>
<!-- Generator: Adobe Illustrator 23.0.1, SVG Export Plug-In . SVG Version: 6.00 Build 0)  -->
<svg version="1.1" id="Layer_1" xmlns="http://www.w3.org/2000/svg" xmlns:xlink="http://www.w3.org/1999/xlink" x="0px" y="0px"
	 viewBox="0 0 849 1202" style="enable-background:new 0 0 849 1202;" xml:space="preserve" preserveAspectRatio="none">
<style type="text/css">
	.st0{fill:#387661;}
</style>
<title>Asset 1</title>
<g>
	<g id="Layer_2-2">
		<polygon class="st0" points="177.2,247.1 424.3,0 353.6,0 141.8,211.8 		"/>
		<polygon class="st0" points="318.6,883.5 636.8,1201.7 672.2,1166.4 354,848.2 601.5,600.7 283.3,282.5 318.6,247.1 636.8,565.3 
			672.2,530 354,211.8 565.7,0 495,0 212.5,282.5 460,530 141.8,848.2 177.2,883.5 495.4,565.3 530.7,600.7 212.5,918.9 495.7,1202 
			566.4,1202 283.3,918.9 		"/>
		<polygon class="st0" points="460,247.1 707.2,0 636.4,0 424.7,211.8 		"/>
		<polygon class="st0" points="849,636 849,565.4 566.1,282.5 601.5,247.1 849,494.7 849,424 636.8,211.8 848.6,0 777.9,0 
			495.4,282.5 742.9,530 424.7,848.2 460,883.5 778.2,565.3 813.6,600.7 495.4,918.9 778.5,1202 849,1202 849,1201.8 566.1,918.9 
			601.5,883.5 849,1131.1 849,1060.4 636.8,848.2 		"/>
		<polygon class="st0" points="0,141.5 141.5,0 70.8,0 0,70.8 		"/>
		<polygon class="st0" points="35.8,883.5 354,1201.7 389.3,1166.4 71.1,848.2 318.6,600.7 0.4,282.5 35.8,247.1 354,565.3 
			389.3,530 71.1,211.8 282.9,0 212.2,0 0,212.2 0,352.8 177.2,530 0,707.2 0,777.9 212.5,565.3 247.9,600.7 0,848.6 0,989.2 
			212.8,1202 283.5,1202 0.4,918.9 		"/>
		<polygon class="st0" points="0,1202 0.7,1202 0,1201.3 		"/>
		<polygon class="st0" points="0,0.1 0.1,0 0,0 		"/>
		<polygon class="st0" points="71.1,1201.7 106.5,1166.4 0,1059.9 0,1130.6 		"/>
		<polygon class="st0" points="106.5,530 0,423.5 0,494.2 71.1,565.3 		"/>
		<polygon class="st0" points="0,564.9 0,636.4 35.8,600.7 		"/>
		<polygon class="st0" points="742.9,247.1 849,141 849,70.3 707.5,211.8 		"/>
		<polygon class="st0" points="849,282.4 849,211.7 778.2,282.5 849,353.2 849,282.5 848.9,282.5 		"/>
		<polygon class="st0" points="778.2,918.9 849,989.6 849,918.9 848.9,918.9 849,918.8 849,848.1 		"/>
		<polygon class="st0" points="742.9,883.5 849,777.4 849,706.7 707.5,848.2 		"/>
	</g>
</g>
</svg>
