<?xml version="1.0" encoding="utf-8"?>
<!-- Generator: Adobe Illustrator 23.0.1, SVG Export Plug-In . SVG Version: 6.00 Build 0)  -->
<svg version="1.1" id="Layer_1" xmlns="http://www.w3.org/2000/svg" xmlns:xlink="http://www.w3.org/1999/xlink" x="0px" y="0px"
	 viewBox="0 0 86 310.6" style="enable-background:new 0 0 86 310.6;" xml:space="preserve" preserveAspectRatio="none">
<style type="text/css">
	.st0{fill:#387661;}
	.st1{fill:#861F41;}
	.st2{fill:none;}
	.st3{fill:#FF4D35;}
</style>
<title>Guatemala_Pattern</title>
<polygon class="st0" points="9.2,96 9.2,96.4 32.2,64.6 32.2,0.8 31.9,1.3 9.2,32.7 "/>
<polygon class="st0" points="76.2,96 76.2,32.7 53.5,1.3 53.2,0.8 53.2,64.6 76.2,96.4 "/>
<path class="st1" d="M38,123v58.7c-4.1-8.6-7.3-21.1-9.2-28.5c-1.2-4.7-2.4-9.4-3.6-13.9c-0.4-1.5-0.8-3-1.3-4.4
	c-2.2-7.2-4.5-13.8-7.5-19.1c-1.3-2.5-2.9-4.7-4.8-6.8c-1-1.1-2.2-2.1-3.4-2.9c-1.2-0.8-2.5-1.4-3.8-1.9c-0.5-0.2-0.9-0.3-1.4-0.4
	c-0.9-0.2-3-0.8-3-0.8l0,82.5c0,0,5,2.6,5,2.6s0.6,0,1,0v-59.2c3,8.6,6.2,21.1,8,28.5c1.2,4.7,2.4,9.4,3.6,13.9
	c0.4,1.5,0.8,3,1.3,4.4c1.4,4.8,3,9.4,5,14c0.5,1.2,1.1,2.3,1.6,3.4c0.3,0.6,0.6,1.1,0.9,1.6c1.3,2.5,2.9,4.7,4.8,6.8
	c1,1.1,2.2,2.1,3.4,2.9c1.2,0.8,2.5,1.4,3.8,1.9c0.5,0.2,0.9,0.3,1.4,0.4c1,0.1,2,0.2,2.9,0.2h0.1c2.1,0.1,4.3-0.4,6.2-1.4
	c0.1,0,0.1-0.1,0.2-0.1c1.2-0.6,2.4-1.4,3.4-2.3c0.1,0,0.1-0.1,0.2-0.1c1-0.9,2-1.9,2.8-3c0,0,0.1-0.1,0.1-0.1
	c0.4-0.5,0.7-0.9,1.1-1.4c0.1-0.1,0.1-0.2,0.2-0.2c0.4-0.5,0.7-1,1-1.6c0,0,0.1-0.1,0.1-0.1c0.8-1.2,1.5-2.5,2.2-3.9
	c0,0,0-0.1,0.1-0.1c0.3-0.6,0.6-1.3,0.9-1.9c0-0.1,0.1-0.2,0.1-0.3c0.3-0.7,0.6-1.4,0.9-2.1l0-0.1c0.6-1.5,1.2-3.1,1.8-4.8l0,0
	c0.3-0.8,0.6-1.6,0.8-2.4l0.1-0.2c2.4-7.2,4.4-15.3,6.5-23.5c1.9-7.4,5.1-19.9,8.4-28.5v59.2c0,0,1-0.1,1-0.1s3.7-2.5,5-2.5V103
	c0,0-2.5,0.5-3.4,0.8c-0.5,0.1-0.9,0.2-1.4,0.4c-0.1,0-0.1,0.1-0.2,0.1c-0.5,0.2-1,0.4-1.5,0.6c-0.2,0.1-0.4,0.2-0.5,0.3
	c-0.5,0.3-1,0.5-1.4,0.8c-0.1,0-0.1,0.1-0.2,0.1c-0.1,0-0.1,0.1-0.2,0.1c-0.5,0.3-0.9,0.7-1.3,1c-0.2,0.1-0.3,0.3-0.5,0.4
	c-0.4,0.4-0.8,0.8-1.3,1.2c-0.1,0.1-0.1,0.1-0.2,0.1c-0.1,0.1-0.2,0.2-0.3,0.3c-0.3,0.3-0.6,0.6-0.8,1c-0.2,0.2-0.3,0.4-0.5,0.6
	c-0.2,0.3-0.4,0.6-0.6,0.8c-0.2,0.2-0.3,0.5-0.5,0.7c-0.2,0.3-0.4,0.6-0.6,0.9c-0.2,0.2-0.3,0.5-0.5,0.7c-0.2,0.4-0.5,0.8-0.7,1.2
	c-0.1,0.2-0.2,0.3-0.3,0.4c-0.3,0.5-0.6,1.1-0.9,1.6c0,0,0,0.1-0.1,0.1c-0.5,1-1,2.1-1.5,3.2c0,0,0,0.1-0.1,0.1
	c0,0.1-0.1,0.1-0.1,0.2c-0.4,0.9-0.7,1.7-1.1,2.6c-0.1,0.2-0.2,0.4-0.3,0.6c-0.4,0.9-0.7,1.9-1,2.8c-0.1,0.3-0.2,0.5-0.3,0.8
	c-0.3,1-0.7,1.9-1,2.9c-0.1,0.3-0.2,0.5-0.2,0.8c-0.3,1-0.6,1.9-0.9,2.9c0,0.1-0.1,0.2-0.1,0.3c0,0.1-0.1,0.2-0.1,0.3
	c-0.4,1.3-0.7,2.5-1.1,3.8c0,0.1-0.1,0.2-0.1,0.3c0,0.1,0,0.1-0.1,0.2c-0.6,2.1-1.1,4.2-1.7,6.4c-0.1,0.3-0.1,0.6-0.2,0.9
	c-0.5,1.9-1,3.7-1.4,5.6c-0.1,0.3-0.1,0.5-0.2,0.8c-1.9,7.4-5.1,19.9-8.8,28.5V123"/>
<path class="st1" d="M38.2,122.9"/>
<path class="st1" d="M47.9,123.4C47.9,123.4,47.9,123.4,47.9,123.4c-2.9,1.9-6.5,1.9-9.3,0.1c0,0-0.1,0-0.1-0.1
	c-0.1-0.1-0.2-0.1-0.3-0.2"/>
<polygon class="st0" points="52.3,213.9 52.3,278.1 75.3,309.9 75.6,310.4 75.6,245.8 52.3,213.5 "/>
<polygon class="st0" points="43.1,289.6 43.1,289.6 43.1,289.6 43.1,289.6 43.1,289.6 43,289.8 42.9,289.6 42.9,289.6 42.9,289.6 
	42.9,289.6 42.9,289.6 42.9,289.9 27.2,310.6 27.2,310.6 42.9,310.6 43.1,310.6 58.9,310.6 58.9,310.6 43.1,289.9 "/>
<polygon class="st0" points="33.8,213.9 33.8,213.5 10.5,245.8 10.5,310.4 10.8,309.9 33.8,278.1 "/>
<path class="st2" d="M37.2,100l4.3,4.3c0.8,0.8,2,0.8,2.8,0c0,0,0,0,0,0l4.3-4.3c0.4-0.4,0.6-0.9,0.6-1.4H36.7
	C36.7,99.1,36.9,99.6,37.2,100z"/>
<path class="st2" d="M48.8,97.1l-4.3-4.3c-0.8-0.8-2-0.8-2.8,0c0,0,0,0,0,0l-4.3,4.3c-0.4,0.4-0.6,0.9-0.6,1.4v0h12.7v0
	C49.3,98,49.1,97.5,48.8,97.1z"/>
<path class="st2" d="M48.8,102l-4.3-4.3c-0.8-0.8-2-0.8-2.8,0c0,0,0,0,0,0l-4.3,4.3c-0.4,0.4-0.6,0.9-0.6,1.4v0c0,0.5,0.2,1,0.6,1.4
	l4.3,4.3c0.8,0.8,2,0.8,2.8,0c0,0,0,0,0,0l4.3-4.3c0.4-0.4,0.6-0.9,0.6-1.4v0C49.3,102.9,49.1,102.4,48.8,102z"/>
<path class="st3" d="M62,97.8L48.7,84.4c-3.1-3.1-8.2-3.1-11.3,0c0,0,0,0,0,0L24,97.8c-3.1,3.1-3.1,8.2,0,11.3l13.4,13.4
	c3.1,3.1,8.2,3.1,11.3,0c0,0,0,0,0,0L62,109.1C65.2,106,65.2,100.9,62,97.8z M49.3,103.4c0,0.5-0.2,1-0.6,1.4l-4.3,4.3
	c-0.8,0.8-2,0.8-2.8,0c0,0,0,0,0,0l-4.3-4.3c-0.4-0.4-0.6-0.9-0.6-1.4v0c0-0.5,0.2-1,0.6-1.4l4.3-4.3c0.8-0.8,2-0.8,2.8,0
	c0,0,0,0,0,0l4.3,4.3C49.1,102.4,49.3,102.9,49.3,103.4L49.3,103.4z"/>
<path class="st3" d="M0,212.2c0.5,0,1-0.2,1.4-0.6l4.3-4.3c0.8-0.8,0.8-2,0-2.8c0,0,0,0,0,0l-4.3-4.3c-0.4-0.4-0.9-0.6-1.4-0.6h0
	v-15c2.1,0,4.2,0.8,5.7,2.3L19,200.2c3.1,3.1,3.1,8.2,0,11.3c0,0,0,0,0,0L5.7,224.9c-1.5,1.5-3.5,2.3-5.7,2.3L0,212.2L0,212.2z"/>
<polygon class="st0" points="15,0 15,0.1 0,20.8 0,21.1 0,21.1 0,21.1 0,21.1 0,21.1 0,20.9 0,0 "/>
<path class="st3" d="M86,212.2c-0.5,0-1-0.2-1.4-0.6l-4.3-4.3c-0.8-0.8-0.8-2,0-2.8c0,0,0,0,0,0l4.3-4.3c0.4-0.4,0.9-0.6,1.4-0.6h0
	v-15c-2.1,0-4.2,0.8-5.7,2.3L67,200.2c-3.1,3.1-3.1,8.2,0,11.3c0,0,0,0,0,0l13.4,13.4c1.5,1.5,3.5,2.3,5.7,2.3L86,212.2L86,212.2z"
	/>
<polygon class="st0" points="86,0 86,20.9 86,21.1 86,21.1 86,21.1 86,21.1 86,21.1 86,20.8 71,0.1 71,0 "/>
</svg>
