<?xml version="1.0" encoding="utf-8"?>
<!-- Generator: Adobe Illustrator 22.1.0, SVG Export Plug-In . SVG Version: 6.00 Build 0)  -->
<svg version="1.1" id="Layer_1" xmlns="http://www.w3.org/2000/svg" xmlns:xlink="http://www.w3.org/1999/xlink" x="0px" y="0px"
	 viewBox="0 0 70.6 70.6" style="enable-background:new 0 0 70.6 70.6;" xml:space="preserve">
<title>logo_green</title>
<path d="M59.9,19.2C51,5.8,32.9,2.1,19.4,11S2.3,37.9,11.1,51.3c4.3,6.5,11,11,18.6,12.5c1.9,0.4,3.9,0.6,5.8,0.6
	c16.1,0,29.2-13.1,29.2-29.2C64.7,29.6,63,24,59.9,19.2z M63.3,32.9c-2.1-1-4.3-1.6-6.6-1.8c1.2-0.8,2.2-2,2.6-3.4
	c0.9-0.3,1.8-0.6,2.7-0.9C62.7,28.7,63.1,30.8,63.3,32.9z M47.3,22.4c-0.1-1.6-0.3-3.2-0.5-4.8c0.4,0,0.7,0,1.1,0
	c1.3,0,2.7-0.1,4-0.2c0.3,0.5,0.6,1,0.8,1.5C50.4,19.1,48.3,20.4,47.3,22.4z M47.3,28.8L47.3,28.8c-0.1,0-0.1-0.1-0.1-0.1
	C47.2,28.6,47.3,28.7,47.3,28.8z M47.2,29.6c0.2,0,0.4,0,0.7,0c0.8,1,1.9,1.8,3.1,2.2c-1.6,0.6-3.1,1.4-4.4,2.5
	C46.9,32.7,47.1,31.1,47.2,29.6L47.2,29.6z M47.5,25.5c0-3.1,2.5-5.6,5.6-5.6c3.1,0,5.6,2.5,5.6,5.6c0,3.1-2.5,5.6-5.6,5.6
	C50,31.1,47.5,28.6,47.5,25.5L47.5,25.5z M56.3,16.7c0.9,1,1.7,2.1,2.5,3.3c1.2,1.9,2.2,3.9,3,6c-0.7,0.3-1.5,0.5-2.2,0.8
	c0.1-0.4,0.1-0.8,0.1-1.2c0-3.5-2.7-6.3-6.1-6.6c-0.3-0.6-0.6-1.1-0.8-1.7C53.9,17.2,55.1,17,56.3,16.7L56.3,16.7z M55.6,16
	c-1.1,0.2-2.2,0.4-3.4,0.5c-1.8-2.9-4.2-5.4-6.9-7.3C49.2,10.7,52.7,13,55.6,16L55.6,16z M51.3,16.7c-1.6,0.1-3.1,0.2-4.7,0.1
	C46.1,14,45,11.4,43.4,9C46.6,11,49.3,13.6,51.3,16.7L51.3,16.7z M46.5,26.3c0,0.8,0,1.6-0.1,2.4c-3,0-6.1-0.3-9-0.9l2.2-11.1
	c2.1,0.4,4.1,0.7,6.2,0.8c0.4,2.3,0.6,4.7,0.7,7.1c0,0.3-0.1,0.5-0.1,0.8C46.4,25.8,46.5,26.1,46.5,26.3z M20.4,43.9
	c-3.1,0-5.6-2.5-5.6-5.6c0-3.1,2.5-5.6,5.6-5.6c3.1,0,5.6,2.5,5.6,5.6c0,0,0,0,0,0C25.9,41.4,23.4,43.9,20.4,43.9z M23.6,44.1
	c0,0.5,0,0.9,0,1.4c-0.8-0.2-1.7-0.4-2.5-0.6C22,44.8,22.8,44.5,23.6,44.1z M15.1,34.3c0-0.1,0-0.1,0-0.2l0.1,0
	C15.2,34.2,15.2,34.3,15.1,34.3z M33.9,25c-0.3-1.3-1.4-2.2-2.7-2.2c0.2-0.7,0.7-2.1,1.8-2.3c0.1,0,0.1-0.1,0.2-0.1
	c0.1,0.7,0.2,1.3,0.5,1.9l0.6-0.3c-0.2-0.5-0.3-1-0.4-1.5c0.3,0,0.6,0,0.8,0c0.8,0,1.7-0.2,1.9-0.8c0.1-0.3-0.1-0.5-0.3-0.6
	c-0.8-0.2-1.6-0.1-2.3,0.3c0.1-0.3,0.2-0.7,0.4-1c0.5,0,2.5,0.1,2.9-0.6c0.1-0.2,0.1-0.4-0.1-0.6c-0.2-0.3-0.5-0.4-0.9-0.4
	c-0.8,0-1.5,0.3-2.1,0.8c-0.6,0.6-1,1.4-0.9,2.3l0,0c-0.7-0.6-1.5-0.9-2.4-0.8c-0.1,0-0.3,0.1-0.4,0.1c0.7-1.5,1.6-2.9,2.5-4.3
	c2,0.7,4,1.3,6,1.7l-2.3,11c-1-0.2-2-0.5-3-0.8C33.9,26.4,34.1,25.7,33.9,25z M28.6,24.9c-0.1-0.1-0.2-0.1-0.3-0.1
	c-0.1,0-0.1,0-0.2,0c-0.9,0.6-3,0.2-3.7,0c-0.1,0-0.2,0-0.3,0.1c-0.8,0.9-1.7,1.6-2.7,2.2c-0.5-1.1-0.8-2.2-1.1-3.4
	c1.8,0.1,3.6-0.1,5.3-0.6c0.1,0,0.2-0.2,0.2-0.3c0-0.1-0.1-0.3-0.2-0.3c-0.8-0.3-1.4-0.9-1.9-1.5c-0.5-0.7-1.3-1.1-2.2-1.3
	c0.8-0.5,1.7-0.8,2.7-0.8c1.5,0,2.7,0.9,3.5,2.6c0,0.1,0,0.2-0.1,0.3c-0.1,0.1-0.1,0.2,0,0.3c0.1,0.1,0.2,0.1,0.3,0.1
	c0.4,0,0.7-0.4,1-1s0.9-1.4,1.7-1.5c0.5-0.1,1,0.1,1.4,0.3c-1.4,0.8-1.8,2.9-1.8,3c0,0.1,0,0.2,0.1,0.3c0.1,0.1,0.2,0.1,0.3,0.1
	c1.1-0.1,2.2,0.6,2.5,1.7c0.1,0.6,0,1.2-0.3,1.7c-0.6,0.7-1.5,1-2.4,0.9c-1.3,0-2.5,0.2-3.7,0.7c0.1-0.3,0.2-0.5,0.3-0.8l0.1-0.2
	c0.3-0.8,0.8-1.6,1.4-2.2C28.7,25.2,28.7,25,28.6,24.9z M34.3,19.8c0.5-0.2,1-0.3,1.6-0.3C35.4,19.8,34.9,19.9,34.3,19.8z
	 M35.1,17.7c0.3-0.2,0.6-0.3,1-0.3h0.1c0.1,0,0.2,0,0.3,0.1C36.1,17.6,35.6,17.7,35.1,17.7L35.1,17.7z M28.8,20.7l-0.1,0.2l-0.2,0.2
	c-1.5-3-3.9-3-5.1-2.8c-1.3,0.2-2.6,1-2.6,1.6c0,0.2,0.1,0.3,0.3,0.3c0.5,0.1,1.9,0.4,2.3,1.1c0.4,0.6,0.9,1,1.5,1.4
	c-0.3,0.1-0.6,0.1-0.8,0.2c-1.3-0.8-2.6-1.6-3.9-2.5c2-3.1,4.5-5.9,7.5-8c1.5,0.8,3,1.5,4.6,2.2C30.9,16.5,29.7,18.6,28.8,20.7
	L28.8,20.7z M22.5,23.1c-0.8,0.1-1.7,0.1-2.5,0c-0.1,0-0.2,0-0.3,0.1c-0.1,0.1-0.1,0.2-0.1,0.3c0.2,1.5,0.7,2.9,1.3,4.2
	c0.1,0.1,0.2,0.2,0.4,0.2c0,0,1.2-0.4,3.1-2.4c0.8,0.2,1.5,0.2,2.3,0.2c-0.8,2.4-1.5,4.9-2,7.3c0,0.1,0,0.2-0.1,0.3
	c-2.6-2.3-6.5-2.3-9,0.1l-0.6-0.3c0.1-0.7,0.2-1.3,0.3-2c0.7-3.5,2-6.9,3.9-10C20.5,21.9,21.4,22.5,22.5,23.1L22.5,23.1z M24.4,43.5
	c1.4-1.1,2.3-2.7,2.5-4.4c2.3,0.7,4.6,1.3,6.9,1.8L33,45.2c-2.8,0.8-5.7,0.9-8.6,0.4C24.4,44.9,24.4,44.2,24.4,43.5L24.4,43.5z
	 M27,38.3c0-1.5-0.5-3-1.5-4.1c0-0.3,0.1-0.6,0.2-0.8c0.3-1.3,0.6-2.5,0.9-3.8c0.9-0.8,2.2-1,4-1.1c0.9,0,1.8-0.3,2.5-0.8
	c1.1,0.3,2.2,0.6,3.4,0.9L34,40.1C31.7,39.6,29.3,39,27,38.3L27,38.3z M34.7,41.1c1.6,0.3,3.2,0.6,4.8,0.8c-1.7,1.3-3.6,2.3-5.6,3
	L34.7,41.1z M34.8,40.3l2.4-11.6c3,0.6,6,0.9,9,0.9h0.1c-0.1,1.8-0.4,3.7-0.7,5.6c-1,1-1.9,2-2.6,3.2c-0.8,1.1-1.7,2-2.7,2.9
	C38.5,41,36.7,40.7,34.8,40.3L34.8,40.3z M41.5,8.2c2,1.7,3.4,4.6,4.3,8.5c-2-0.1-3.9-0.4-5.9-0.7L41.5,8.2z M39,15.8
	c-1.9-0.4-3.8-1-5.7-1.7c2.3-3.2,4.8-5.4,7.3-6.1L39,15.8z M32.6,13.9c-1.5-0.6-2.9-1.2-4.3-2C31.4,9.8,35,8.4,38.8,8
	C36.3,9.4,34.2,11.5,32.6,13.9L32.6,13.9z M35.6,7.5c0.3,0,0.6,0,0.9,0c-3.3,0.7-6.4,2.1-9.1,4c-1-0.5-1.9-1.1-2.8-1.7
	C28.1,8.2,31.8,7.5,35.6,7.5L35.6,7.5z M23.8,10.1c0.9,0.7,1.9,1.3,2.9,1.9c-3,2.2-5.5,4.9-7.4,8c-1.5-1.1-2.9-2.3-4.2-3.6
	C17.5,13.8,20.5,11.6,23.8,10.1L23.8,10.1z M9.3,25.9c1.2-3.3,2.9-6.3,5.2-8.9c1.3,1.3,2.8,2.6,4.3,3.7c-1.9,3.2-3.3,6.7-4,10.4
	c-0.1,0.6-0.2,1.1-0.3,1.7c-1.9-1.1-3.7-2.2-5.4-3.5C9.1,28.2,9.1,27.1,9.3,25.9z M14.3,40.9c-3-2.7-4.8-6.5-5.1-10.5
	c1.7,1.2,3.4,2.3,5.2,3.3c-0.1,0.8-0.2,1.6-0.2,2.4C13.6,37.6,13.6,39.3,14.3,40.9z M11.5,49.5c-3.5-5.8-4.6-12.7-3.4-19.3
	c0.9,12.1,12.4,15.7,12.5,15.7c2.3,0.7,4.7,1.1,7.1,1.1c4.7,0,9.3-1.6,12.9-4.6c-4.1,6.6-12.2,17-26.9,9
	C12.9,50.9,12.1,50.2,11.5,49.5z M50.9,58.5c-2.9,1.9-6.1,3.3-9.5,4c2.1-1.3,4-3,5.4-5c0.5-0.7,1-1.5,1.5-2.2
	c2.8-4.1,5.4-8,11.4-6.2C57.6,52.9,54.5,56.1,50.9,58.5z M62.8,40.9c-0.6,2.7-1.5,5.4-2.9,7.8l0.1-0.5c-6.8-2-9.9,2.6-12.7,6.6
	c-0.5,0.7-1,1.5-1.5,2.2c-1.6,2.2-4.6,5.2-8.9,6.1c-9.1,0.5-17.8-3.5-23.4-10.7c3.1,1.7,6.6,2.7,10.1,2.8
	c10.7,0,16.6-10.2,19.2-14.7c0.3-0.5,0.6-1,0.8-1.4l0,0l0.2-0.3c7.4-10.8,17.4-6,19.5-4.7C63.5,36.4,63.3,38.7,62.8,40.9z"/>
</svg>
